# xmcd
#
# Track frame offsets: 
#        150
#        10071
#        17751
#        28033
#        40085
#        50916
#        63487
#        71847
#        81659
#        91044
#        102984
#
# Disc length: 1528 seconds
#
# Revision: 0
# Processed by: cddbd v1.5.2PL0 Copyright (c) Steve Scherf et al.
# Submitted via: ExactAudioCopy v0.95b4
#
DISCID=9005f60b
DTITLE=Johnny Cash and The Tennessee Two - Original Golden Hits Volume
DTITLE=II
DYEAR=1900
DGENRE=Classic Country
TTITLE0=Ballad of a Teen-Age Queen
TTITLE1=Come In Stranger
TTITLE2=The Ways of a Woman In Love
TTITLE3=You're the Nearest Thing to Heaven
TTITLE4=I Just Thought You'd Like to Know
TTITLE5=Give My Love to Rose
TTITLE6=Guess Things Happen That Way
TTITLE7=Just About Time
TTITLE8=Luther's Boogie
TTITLE9=Thanks a Lot
TTITLE10=Big River
EXTD=
EXTT0=
EXTT1=
EXTT2=
EXTT3=
EXTT4=
EXTT5=
EXTT6=
EXTT7=
EXTT8=
EXTT9=
EXTT10=
PLAYORDER=
